<mxfile host="app.diagrams.net" agent="Mozilla/5.0 (Macintosh; Intel Mac OS X 10_15_7) AppleWebKit/537.36 (KHTML, like Gecko) Chrome/129.0.0.0 Safari/537.36" version="24.8.3">
  <diagram id="l2aKFoh6-Bn0gOPZ2l0T" name="Page-1">
    <mxGraphModel dx="954" dy="511" grid="1" gridSize="10" guides="1" tooltips="1" connect="1" arrows="1" fold="1" page="1" pageScale="1" pageWidth="1169" pageHeight="827" math="0" shadow="0">
      <root>
        <mxCell id="0" />
        <mxCell id="1" parent="0" />
        <mxCell id="mpq5AgpwV83IM184FDqD-40" value="PersonalBudgetTracker(Monolithic Application with N-tier Architecture)&lt;div&gt;&lt;br&gt;&lt;/div&gt;" style="text;html=1;resizable=1;points=[];autosize=0;align=left;verticalAlign=top;spacingTop=-4;fontSize=20;fontStyle=1" parent="1" vertex="1">
          <mxGeometry x="80" y="10" width="580" height="30" as="geometry" />
        </mxCell>
        <mxCell id="rp0XhpTtCMItJCDOhCMX-14" value="" style="endArrow=classic;html=1;rounded=0;entryX=0.395;entryY=1.005;entryDx=0;entryDy=0;entryPerimeter=0;exitX=0.393;exitY=0.003;exitDx=0;exitDy=0;exitPerimeter=0;" edge="1" parent="1" source="rp0XhpTtCMItJCDOhCMX-3">
          <mxGeometry relative="1" as="geometry">
            <mxPoint x="440" y="360" as="sourcePoint" />
            <mxPoint x="405.9000000000001" y="281" as="targetPoint" />
            <Array as="points" />
          </mxGeometry>
        </mxCell>
        <mxCell id="rp0XhpTtCMItJCDOhCMX-15" value="REST API&amp;nbsp;" style="edgeLabel;resizable=0;html=1;;align=center;verticalAlign=middle;" connectable="0" vertex="1" parent="rp0XhpTtCMItJCDOhCMX-14">
          <mxGeometry relative="1" as="geometry" />
        </mxCell>
        <mxCell id="rp0XhpTtCMItJCDOhCMX-16" value="&lt;div&gt;&lt;br&gt;&lt;/div&gt;" style="edgeLabel;html=1;align=center;verticalAlign=middle;resizable=0;points=[];" vertex="1" connectable="0" parent="rp0XhpTtCMItJCDOhCMX-14">
          <mxGeometry x="-0.1" y="1" relative="1" as="geometry">
            <mxPoint as="offset" />
          </mxGeometry>
        </mxCell>
        <mxCell id="rp0XhpTtCMItJCDOhCMX-17" value="" style="endArrow=classic;html=1;rounded=0;exitX=0.576;exitY=1.005;exitDx=0;exitDy=0;exitPerimeter=0;entryX=0.574;entryY=0.003;entryDx=0;entryDy=0;entryPerimeter=0;" edge="1" parent="1" target="rp0XhpTtCMItJCDOhCMX-3">
          <mxGeometry relative="1" as="geometry">
            <mxPoint x="481.9200000000001" y="281" as="sourcePoint" />
            <mxPoint x="555" y="360" as="targetPoint" />
          </mxGeometry>
        </mxCell>
        <mxCell id="rp0XhpTtCMItJCDOhCMX-18" value="REST API" style="edgeLabel;resizable=0;html=1;;align=center;verticalAlign=middle;" connectable="0" vertex="1" parent="rp0XhpTtCMItJCDOhCMX-17">
          <mxGeometry relative="1" as="geometry" />
        </mxCell>
        <mxCell id="rp0XhpTtCMItJCDOhCMX-44" value="SpringBoot" style="text;html=1;align=center;verticalAlign=middle;resizable=0;points=[];autosize=1;strokeColor=none;fillColor=none;" vertex="1" parent="1">
          <mxGeometry x="290" y="399" width="80" height="30" as="geometry" />
        </mxCell>
        <mxCell id="rp0XhpTtCMItJCDOhCMX-50" value="" style="shape=flexArrow;endArrow=classic;startArrow=classic;html=1;rounded=0;" edge="1" parent="1">
          <mxGeometry width="100" height="100" relative="1" as="geometry">
            <mxPoint x="450" y="830" as="sourcePoint" />
            <mxPoint x="450" y="750" as="targetPoint" />
          </mxGeometry>
        </mxCell>
        <mxCell id="rp0XhpTtCMItJCDOhCMX-54" value="" style="group" vertex="1" connectable="0" parent="1">
          <mxGeometry x="236" y="344" width="435" height="646" as="geometry" />
        </mxCell>
        <mxCell id="rp0XhpTtCMItJCDOhCMX-2" value="" style="rounded=0;whiteSpace=wrap;html=1;" vertex="1" parent="rp0XhpTtCMItJCDOhCMX-54">
          <mxGeometry y="486" width="435" height="160" as="geometry" />
        </mxCell>
        <mxCell id="rp0XhpTtCMItJCDOhCMX-47" value="&lt;h1&gt;DataAccessLayer&lt;/h1&gt;" style="text;html=1;align=center;verticalAlign=middle;resizable=0;points=[];autosize=1;strokeColor=none;fillColor=none;" vertex="1" parent="rp0XhpTtCMItJCDOhCMX-54">
          <mxGeometry x="110" y="476" width="220" height="70" as="geometry" />
        </mxCell>
        <mxCell id="rp0XhpTtCMItJCDOhCMX-49" value="Mongo DB" style="shape=cylinder3;whiteSpace=wrap;html=1;boundedLbl=1;backgroundOutline=1;size=15;" vertex="1" parent="rp0XhpTtCMItJCDOhCMX-54">
          <mxGeometry x="195" y="546" width="80" height="80" as="geometry" />
        </mxCell>
        <mxCell id="rp0XhpTtCMItJCDOhCMX-48" value="" style="dashed=0;outlineConnect=0;html=1;align=center;labelPosition=center;verticalLabelPosition=bottom;verticalAlign=top;shape=mxgraph.webicons.mongodb;gradientColor=#DFDEDE" vertex="1" parent="rp0XhpTtCMItJCDOhCMX-54">
          <mxGeometry x="8.300000000000011" y="496" width="57.4" height="55" as="geometry" />
        </mxCell>
        <mxCell id="rp0XhpTtCMItJCDOhCMX-53" value="" style="group" vertex="1" connectable="0" parent="rp0XhpTtCMItJCDOhCMX-54">
          <mxGeometry width="430" height="406" as="geometry" />
        </mxCell>
        <mxCell id="rp0XhpTtCMItJCDOhCMX-3" value="" style="rounded=0;whiteSpace=wrap;html=1;" vertex="1" parent="rp0XhpTtCMItJCDOhCMX-53">
          <mxGeometry y="16" width="430" height="390" as="geometry" />
        </mxCell>
        <mxCell id="rp0XhpTtCMItJCDOhCMX-24" value="&lt;h1&gt;&lt;span style=&quot;text-wrap: wrap;&quot;&gt;BusinessLogicLayer&lt;/span&gt;&lt;/h1&gt;" style="text;html=1;align=center;verticalAlign=middle;resizable=1;points=[];autosize=1;strokeColor=none;fillColor=none;rotation=0;textDirection=ltr;spacingRight=5;flipH=1;" vertex="1" parent="rp0XhpTtCMItJCDOhCMX-53">
          <mxGeometry x="70" width="260" height="70" as="geometry" />
        </mxCell>
        <mxCell id="rp0XhpTtCMItJCDOhCMX-43" value="" style="rounded=0;whiteSpace=wrap;html=1;" vertex="1" parent="rp0XhpTtCMItJCDOhCMX-53">
          <mxGeometry x="17" y="56" width="390" height="330" as="geometry" />
        </mxCell>
        <mxCell id="rp0XhpTtCMItJCDOhCMX-37" value="Controller" style="rounded=1;whiteSpace=wrap;html=1;" vertex="1" parent="rp0XhpTtCMItJCDOhCMX-53">
          <mxGeometry x="27" y="106" width="280" height="46" as="geometry" />
        </mxCell>
        <mxCell id="rp0XhpTtCMItJCDOhCMX-38" value="Service" style="rounded=1;whiteSpace=wrap;html=1;" vertex="1" parent="rp0XhpTtCMItJCDOhCMX-53">
          <mxGeometry x="25" y="176" width="290" height="46" as="geometry" />
        </mxCell>
        <mxCell id="rp0XhpTtCMItJCDOhCMX-39" value="Repositories" style="rounded=1;whiteSpace=wrap;html=1;" vertex="1" parent="rp0XhpTtCMItJCDOhCMX-53">
          <mxGeometry x="25" y="316" width="290" height="46" as="geometry" />
        </mxCell>
        <mxCell id="rp0XhpTtCMItJCDOhCMX-41" value="Model" style="rounded=1;whiteSpace=wrap;html=1;direction=south;" vertex="1" parent="rp0XhpTtCMItJCDOhCMX-53">
          <mxGeometry x="335" y="100" width="60" height="266" as="geometry" />
        </mxCell>
        <mxCell id="rp0XhpTtCMItJCDOhCMX-45" value="" style="image;aspect=fixed;html=1;points=[];align=center;fontSize=12;image=img/lib/azure2/compute/Azure_Spring_Cloud.svg;" vertex="1" parent="rp0XhpTtCMItJCDOhCMX-53">
          <mxGeometry x="17" y="55" width="40" height="40" as="geometry" />
        </mxCell>
        <mxCell id="rp0XhpTtCMItJCDOhCMX-69" value="Integration" style="rounded=1;whiteSpace=wrap;html=1;" vertex="1" parent="rp0XhpTtCMItJCDOhCMX-53">
          <mxGeometry x="25" y="246" width="290" height="46" as="geometry" />
        </mxCell>
        <mxCell id="rp0XhpTtCMItJCDOhCMX-56" value="" style="group" vertex="1" connectable="0" parent="1">
          <mxGeometry x="240" y="70" width="420" height="210" as="geometry" />
        </mxCell>
        <mxCell id="rp0XhpTtCMItJCDOhCMX-57" value="&lt;h1 style=&quot;padding-top: 0px; padding-bottom: 0px;&quot;&gt;&lt;br&gt;&lt;/h1&gt;" style="rounded=0;whiteSpace=wrap;html=1;align=left;" vertex="1" parent="rp0XhpTtCMItJCDOhCMX-56">
          <mxGeometry y="10" width="420" height="200" as="geometry" />
        </mxCell>
        <mxCell id="rp0XhpTtCMItJCDOhCMX-58" value="&lt;h1&gt;PresentationLayer&lt;/h1&gt;" style="text;html=1;align=center;verticalAlign=middle;resizable=0;points=[];autosize=1;" vertex="1" parent="rp0XhpTtCMItJCDOhCMX-56">
          <mxGeometry x="80" width="230" height="70" as="geometry" />
        </mxCell>
        <mxCell id="rp0XhpTtCMItJCDOhCMX-59" value="" style="group" vertex="1" connectable="0" parent="rp0XhpTtCMItJCDOhCMX-56">
          <mxGeometry x="40" y="70" width="350" height="108" as="geometry" />
        </mxCell>
        <mxCell id="rp0XhpTtCMItJCDOhCMX-60" value="" style="rounded=1;whiteSpace=wrap;html=1;" vertex="1" parent="rp0XhpTtCMItJCDOhCMX-59">
          <mxGeometry y="20" width="350" height="60" as="geometry" />
        </mxCell>
        <mxCell id="rp0XhpTtCMItJCDOhCMX-61" value="" style="image;aspect=fixed;html=1;points=[];align=center;fontSize=12;image=img/lib/azure2/ai_machine_learning/Content_Moderators.svg;" vertex="1" parent="rp0XhpTtCMItJCDOhCMX-59">
          <mxGeometry x="26" width="68" height="62.8" as="geometry" />
        </mxCell>
        <mxCell id="rp0XhpTtCMItJCDOhCMX-62" value="&lt;p&gt;Client UI&lt;/p&gt;" style="text;html=1;align=center;verticalAlign=middle;resizable=0;points=[];autosize=1;" vertex="1" parent="rp0XhpTtCMItJCDOhCMX-59">
          <mxGeometry x="24" y="50" width="70" height="50" as="geometry" />
        </mxCell>
        <mxCell id="rp0XhpTtCMItJCDOhCMX-63" value="React with HTML" style="text;html=1;align=center;verticalAlign=middle;resizable=0;points=[];autosize=1;" vertex="1" parent="rp0XhpTtCMItJCDOhCMX-59">
          <mxGeometry x="230" y="35" width="120" height="30" as="geometry" />
        </mxCell>
        <mxCell id="rp0XhpTtCMItJCDOhCMX-64" value="" style="shape=image;html=1;verticalAlign=top;verticalLabelPosition=bottom;labelBackgroundColor=#ffffff;imageAspect=0;aspect=fixed;image=https://cdn1.iconfinder.com/data/icons/unicons-line-vol-5/24/react-128.png" vertex="1" parent="rp0XhpTtCMItJCDOhCMX-59">
          <mxGeometry x="120" y="24" width="60" height="60" as="geometry" />
        </mxCell>
        <mxCell id="rp0XhpTtCMItJCDOhCMX-65" value="" style="dashed=0;outlineConnect=0;html=1;align=center;labelPosition=center;verticalLabelPosition=bottom;verticalAlign=top;shape=mxgraph.webicons.html5;gradientColor=#DFDEDE" vertex="1" parent="rp0XhpTtCMItJCDOhCMX-59">
          <mxGeometry x="180" y="31" width="50" height="46" as="geometry" />
        </mxCell>
        <mxCell id="rp0XhpTtCMItJCDOhCMX-66" value="" style="rounded=1;whiteSpace=wrap;html=1;" vertex="1" parent="rp0XhpTtCMItJCDOhCMX-56">
          <mxGeometry x="40" y="160" width="350" height="40" as="geometry" />
        </mxCell>
        <mxCell id="rp0XhpTtCMItJCDOhCMX-67" style="edgeStyle=orthogonalEdgeStyle;rounded=0;orthogonalLoop=1;jettySize=auto;html=1;exitX=0.5;exitY=1;exitDx=0;exitDy=0;" edge="1" parent="rp0XhpTtCMItJCDOhCMX-56" source="rp0XhpTtCMItJCDOhCMX-57" target="rp0XhpTtCMItJCDOhCMX-57">
          <mxGeometry relative="1" as="geometry" />
        </mxCell>
        <mxCell id="rp0XhpTtCMItJCDOhCMX-68" value="" style="dashed=0;outlineConnect=0;html=1;align=center;labelPosition=center;verticalLabelPosition=bottom;verticalAlign=top;shape=mxgraph.weblogos.json_2" vertex="1" parent="rp0XhpTtCMItJCDOhCMX-56">
          <mxGeometry x="169.8" y="167.4" width="80.4" height="25.200000000000003" as="geometry" />
        </mxCell>
      </root>
    </mxGraphModel>
  </diagram>
</mxfile>
